<svg width="27" height="26" viewBox="0 0 27 26" fill="none" xmlns="http://www.w3.org/2000/svg">
<path fill-rule="evenodd" clip-rule="evenodd" d="M0.615827 1.4393C0.787552 0.950852 1.32274 0.69409 1.8112 0.865827L2.13771 0.980615L2.18817 0.998351C2.95873 1.26924 3.61319 1.49931 4.12826 1.75204C4.67905 2.02229 5.15136 2.35521 5.50659 2.87504C5.85906 3.39084 6.00458 3.95674 6.07174 4.57721C6.07655 4.62163 6.08099 4.66681 6.0851 4.71275H20.3613L20.4002 4.71275C21.4235 4.71274 22.4669 4.71272 23.3257 4.80873C23.7629 4.85759 24.1961 4.93548 24.5793 5.07009C24.9548 5.20206 25.3678 5.4182 25.6615 5.79998C26.1388 6.42046 26.2221 7.14298 26.177 7.87573C26.1339 8.57285 25.961 9.43948 25.7554 10.4696L25.7553 10.4698L25.7553 10.4699L25.7419 10.5373L25.7406 10.543L24.8274 10.3547L24.8225 10.3537L24.8206 10.3533L25.7406 10.543L25.116 13.5739L25.1038 13.6331L25.1038 13.6331C24.9169 14.5396 24.7597 15.3023 24.5569 15.9043C24.3414 16.5435 24.0426 17.1055 23.5095 17.54C22.9764 17.9745 22.3656 18.1536 21.696 18.2355C21.0647 18.3128 20.2846 18.3128 19.3574 18.3128H19.3573L19.3008 18.3128H12.6721H12.5993C10.9177 18.3128 9.55573 18.3128 8.4832 18.1606C7.3629 18.0019 6.42189 17.661 5.67956 16.878C4.99678 16.1579 4.6316 15.3933 4.4487 14.3254C4.27739 13.3251 4.26035 12.0159 4.26035 10.2003V6.7982C4.26035 5.87326 4.25908 5.25425 4.20763 4.77899C4.15846 4.3248 4.07134 4.09803 3.95851 3.93291C3.84844 3.77184 3.68135 3.6213 3.30233 3.43533C2.89876 3.23731 2.35033 3.04288 1.51581 2.74948L1.1893 2.63468C0.700852 2.46295 0.44409 1.92776 0.615827 1.4393ZM23.9043 10.1644C24.126 9.05368 24.2713 8.31418 24.3055 7.76021C24.338 7.23352 24.2554 7.04948 24.1788 6.94771C24.1786 6.94757 24.1783 6.94732 24.1779 6.94695C24.1698 6.94013 24.1159 6.89468 23.9576 6.83906C23.7634 6.77079 23.4869 6.71341 23.1174 6.67211C22.3739 6.589 21.4318 6.58775 20.3613 6.58775H6.13534C6.13536 6.64064 6.13535 6.69408 6.13535 6.74807L6.13535 6.7982V10.2003C6.13535 12.0615 6.15784 13.1975 6.29679 14.0089C6.42416 14.7525 6.64003 15.1659 7.04023 15.588C7.3809 15.9473 7.85294 16.1775 8.74645 16.3043C9.67229 16.4355 10.9011 16.4378 12.6721 16.4378H19.3008C20.2999 16.4378 20.9643 16.4361 21.4683 16.3745C21.9466 16.3159 22.1685 16.214 22.325 16.0865C22.4815 15.959 22.6261 15.7621 22.78 15.3055C22.9421 14.8244 23.0779 14.1739 23.2796 13.1954L23.9043 10.1644L23.9043 10.1644ZM8.37525 21.4377C7.85749 21.4377 7.43775 21.8575 7.43775 22.3752C7.43775 22.893 7.85749 23.3127 8.37525 23.3127C8.89301 23.3127 9.31275 22.893 9.31275 22.3752C9.31275 21.8575 8.89301 21.4377 8.37525 21.4377ZM5.56275 22.3752C5.56275 20.822 6.82193 19.5627 8.37525 19.5627C9.92857 19.5627 11.1878 20.822 11.1878 22.3752C11.1878 23.9285 9.92857 25.1877 8.37525 25.1877C6.82193 25.1877 5.56275 23.9285 5.56275 22.3752ZM19.6252 21.4379C19.1075 21.4379 18.6877 21.8576 18.6877 22.3754C18.6877 22.8931 19.1075 23.3129 19.6252 23.3129C20.143 23.3129 20.5627 22.8931 20.5627 22.3754C20.5627 21.8576 20.143 21.4379 19.6252 21.4379ZM16.8127 22.3754C16.8127 20.8219 18.072 19.5629 19.6252 19.5629C21.1785 19.5629 22.4377 20.8219 22.4377 22.3754C22.4377 23.9286 21.1785 25.1879 19.6252 25.1879C18.072 25.1879 16.8127 23.9286 16.8127 22.3754ZM10.7187 8.32592C11.2292 8.23944 11.7131 8.58317 11.7996 9.09366L12.4598 12.991C12.5463 13.5015 12.2026 13.9855 11.6921 14.072C11.1816 14.1584 10.6977 13.8147 10.6112 13.3042L9.95092 9.40684C9.86444 8.89635 10.2082 8.4124 10.7187 8.32592ZM19.335 9.40684C19.4214 8.89635 19.0777 8.4124 18.5672 8.32592C18.0567 8.23944 17.5728 8.58317 17.4863 9.09366L16.826 12.991C16.7396 13.5015 17.0833 13.9855 17.5938 14.072C18.1043 14.1584 18.5882 13.8147 18.6747 13.3042L19.335 9.40684Z" fill="#121212"/>
</svg>
