<svg width="16" height="16" viewBox="0 0 16 16" fill="none" xmlns="http://www.w3.org/2000/svg">
<path d="M8.50065 5.33398C8.50065 5.05784 8.27679 4.83398 8.00065 4.83398C7.72451 4.83398 7.50065 5.05784 7.50065 5.33398V8.00065C7.50065 8.13326 7.55333 8.26044 7.6471 8.3542L9.31376 10.0209C9.50903 10.2161 9.82561 10.2161 10.0209 10.0209C10.2161 9.82561 10.2161 9.50903 10.0209 9.31376L8.50065 7.79354V5.33398Z" fill="#563B10"/>
<path fill-rule="evenodd" clip-rule="evenodd" d="M8.00065 0.833984C4.04261 0.833984 0.833984 4.04261 0.833984 8.00065C0.833984 11.9587 4.04261 15.1673 8.00065 15.1673C11.9587 15.1673 15.1673 11.9587 15.1673 8.00065C15.1673 4.04261 11.9587 0.833984 8.00065 0.833984ZM1.83398 8.00065C1.83398 4.59489 4.59489 1.83398 8.00065 1.83398C11.4064 1.83398 14.1673 4.59489 14.1673 8.00065C14.1673 11.4064 11.4064 14.1673 8.00065 14.1673C4.59489 14.1673 1.83398 11.4064 1.83398 8.00065Z" fill="#563B10"/>
</svg>
