<svg width="19" height="18" viewBox="0 0 19 18" fill="none" xmlns="http://www.w3.org/2000/svg">
<path fill-rule="evenodd" clip-rule="evenodd" d="M8.96933 2.48107C8.67404 2.86668 8.34072 3.46163 7.85657 4.33017L7.6108 4.77105C7.596 4.79761 7.58138 4.82391 7.56691 4.84996C7.34134 5.25591 7.15096 5.59851 6.8442 5.83139C6.53415 6.06676 6.15618 6.1517 5.71691 6.25041C5.68867 6.25676 5.66018 6.26316 5.63143 6.26967L5.15417 6.37765C4.21268 6.59068 3.57219 6.73725 3.13348 6.91013C2.70538 7.07884 2.61502 7.21707 2.58057 7.32783C2.54422 7.44471 2.54313 7.62352 2.79907 8.03009C3.05883 8.44273 3.49706 8.95742 4.13795 9.70684L4.46331 10.0873C4.46331 10.0873 4.46332 10.0873 4.46331 10.0873C4.48222 10.1094 4.50095 10.1313 4.5195 10.1529C4.82177 10.5055 5.0738 10.7995 5.18941 11.1713C5.30431 11.5408 5.26623 11.9291 5.22005 12.3999C5.21721 12.4288 5.21435 12.4579 5.21149 12.4875L5.16231 12.9951C5.06549 13.9942 5.0002 14.6821 5.02228 15.1777C5.04431 15.6723 5.14879 15.8091 5.23185 15.8721C5.30573 15.9282 5.4423 15.9903 5.88724 15.8628C6.33938 15.7332 6.94031 15.4583 7.82185 15.0525C7.82183 15.0525 7.82187 15.0525 7.82185 15.0525L8.26876 14.8467C8.29635 14.834 8.32369 14.8213 8.35078 14.8088C8.75922 14.62 9.11366 14.4561 9.50038 14.4561C9.8871 14.4561 10.2415 14.62 10.65 14.8088C10.6771 14.8213 10.7044 14.834 10.732 14.8467L11.1788 15.0525C11.1788 15.0524 11.1789 15.0525 11.1788 15.0525C12.0604 15.4583 12.6614 15.7332 13.1135 15.8628C13.5584 15.9903 13.695 15.9282 13.7689 15.8721C13.852 15.8091 13.9565 15.6724 13.9785 15.1777C14.0006 14.6821 13.9353 13.9942 13.8385 12.9951C13.8385 12.9951 13.8385 12.9951 13.8385 12.9951L13.7893 12.4875C13.7864 12.458 13.7835 12.4287 13.7807 12.3998C13.7345 11.929 13.6965 11.5408 13.8113 11.1714C13.9269 10.7997 14.1789 10.5056 14.4811 10.1531C14.4997 10.1314 14.5185 10.1095 14.5374 10.0873C14.5374 10.0873 14.5375 10.0873 14.5374 10.0873L14.8628 9.70685C15.5037 8.95744 15.942 8.44272 16.2017 8.03009C16.4576 7.62353 16.4566 7.44472 16.4202 7.32784C16.3858 7.21708 16.2954 7.07885 15.8673 6.91013C15.4286 6.73725 14.7881 6.59068 13.8466 6.37765L13.3693 6.26967C13.3406 6.26318 13.3122 6.25678 13.284 6.25044C12.8446 6.15171 12.4667 6.06677 12.1566 5.83138C11.8499 5.5986 11.6595 5.25611 11.4342 4.85053C11.4196 4.82431 11.4049 4.79783 11.39 4.77109L11.1442 4.33016C10.66 3.46163 10.3267 2.86667 10.0314 2.48106C9.73641 2.09583 9.58572 2.0625 9.50038 2.0625C9.41504 2.0625 9.26435 2.09583 8.96933 2.48107ZM8.07615 1.79708C8.43366 1.33022 8.87554 0.9375 9.50038 0.9375C10.1252 0.9375 10.5671 1.33022 10.9246 1.79707C11.2759 2.2558 11.6484 2.92408 12.1036 3.74083L12.1268 3.78239L12.3726 4.22326C12.6671 4.75149 12.7423 4.86358 12.8367 4.93528C12.9277 5.0043 13.045 5.04286 13.6176 5.1724L14.0949 5.28039L14.1428 5.29123C15.0244 5.49068 15.7508 5.65501 16.2797 5.86347C16.8289 6.07988 17.3095 6.39884 17.4945 6.99376C17.6776 7.58253 17.4718 8.12423 17.1538 8.62942C16.8447 9.12039 16.351 9.69765 15.7479 10.4028L15.7178 10.438L15.3925 10.8185C15.0047 11.2719 14.9237 11.3829 14.8856 11.5053C14.8468 11.6302 14.8505 11.7747 14.909 12.379L14.9582 12.8865L14.9627 12.9328C15.054 13.8747 15.1284 14.6428 15.1024 15.2278C15.0759 15.8232 14.9406 16.3951 14.4492 16.7682C13.9485 17.1482 13.366 17.1054 12.8037 16.9443C12.2585 16.7881 11.5788 16.4751 10.7535 16.0951L10.2615 15.8685C10.2615 15.8685 10.2615 15.8686 10.2615 15.8685C9.72353 15.6209 9.60835 15.5811 9.50038 15.5811C9.39241 15.5811 9.27728 15.6208 8.73931 15.8685C8.73929 15.8685 8.73933 15.8685 8.73931 15.8685L8.29246 16.0743L8.24725 16.0951C7.42196 16.4751 6.7423 16.7881 6.1971 16.9443C5.63478 17.1054 5.05228 17.1482 4.55164 16.7682C4.06017 16.3951 3.92492 15.8232 3.89839 15.2278C3.87233 14.6427 3.94679 13.8745 4.0381 12.9325L4.09174 12.379C4.15032 11.7744 4.15397 11.6302 4.11515 11.5053C4.07707 11.3829 3.99608 11.2719 3.60832 10.8185L3.28296 10.438L3.25269 10.4026C2.64969 9.69755 2.15605 9.12035 1.84701 8.62942C1.52899 8.12424 1.32322 7.58254 1.50632 6.99376C1.69132 6.39884 2.17187 6.07988 2.72101 5.86348C3.25003 5.655 3.97641 5.49067 4.85812 5.2912L4.9059 5.28039L5.38316 5.17241C5.38316 5.17241 5.38316 5.17241 5.38316 5.17241C5.95574 5.04285 6.07304 5.00436 6.16397 4.93533C6.25844 4.86362 6.33377 4.75142 6.62816 4.22329L6.89717 3.74071C7.3524 2.92402 7.72488 2.25578 8.07615 1.79708Z" fill="#FFC23C"/>
<path d="M7.85657 4.33017C8.34072 3.46163 8.67404 2.86668 8.96933 2.48107C9.26435 2.09583 9.41504 2.0625 9.50038 2.0625C9.58572 2.0625 9.73641 2.09583 10.0314 2.48106C10.3267 2.86667 10.66 3.46163 11.1442 4.33016L11.39 4.77109L11.4342 4.85053C11.6595 5.25611 11.8499 5.5986 12.1566 5.83138C12.4667 6.06677 12.8446 6.15171 13.284 6.25044L13.3693 6.26967L13.8466 6.37765C14.7881 6.59068 15.4286 6.73725 15.8673 6.91013C16.2954 7.07885 16.3858 7.21708 16.4202 7.32784C16.4566 7.44472 16.4576 7.62353 16.2017 8.03009C15.942 8.44272 15.5037 8.95744 14.8628 9.70685L14.5374 10.0873L14.4811 10.1531C14.1789 10.5056 13.9269 10.7997 13.8113 11.1714C13.6965 11.5408 13.7345 11.929 13.7807 12.3998L13.7893 12.4875L13.8385 12.9951C13.9353 13.9942 14.0006 14.6821 13.9785 15.1777C13.9565 15.6724 13.852 15.8091 13.7689 15.8721C13.695 15.9282 13.5584 15.9903 13.1135 15.8628C12.6614 15.7332 12.0604 15.4583 11.1788 15.0525L10.732 14.8467L10.65 14.8088C10.2415 14.62 9.8871 14.4561 9.50038 14.4561C9.11366 14.4561 8.75922 14.62 8.35078 14.8088L8.26876 14.8467L7.82185 15.0525C6.94031 15.4583 6.33938 15.7332 5.88724 15.8628C5.4423 15.9903 5.30573 15.9282 5.23185 15.8721C5.14879 15.8091 5.04431 15.6723 5.02228 15.1777C5.0002 14.6821 5.06549 13.9942 5.16231 12.9951L5.21149 12.4875L5.22005 12.3999C5.26623 11.9291 5.30431 11.5408 5.18941 11.1713C5.0738 10.7995 4.82177 10.5055 4.5195 10.1529L4.46331 10.0873L4.13795 9.70684C3.49706 8.95742 3.05883 8.44273 2.79907 8.03009C2.54313 7.62352 2.54422 7.44471 2.58057 7.32783C2.61502 7.21707 2.70538 7.07884 3.13348 6.91013C3.57219 6.73725 4.21268 6.59068 5.15417 6.37765L5.63143 6.26967L5.71691 6.25041C6.15618 6.1517 6.53415 6.06676 6.8442 5.83139C7.15096 5.59851 7.34134 5.25591 7.56691 4.84996L7.6108 4.77105L7.85657 4.33017Z" fill="#FFC23C"/>
</svg>
