<svg width="14" height="14" viewBox="0 0 14 14" fill="none" xmlns="http://www.w3.org/2000/svg">
<path d="M7.71961 0.000861247C8.2304 -0.00109884 8.74119 0.00403486 9.25183 0.0162608L9.38762 0.0211606C9.54441 0.0267604 9.69911 0.0337601 9.886 0.0421599C10.6308 0.0771587 11.1389 0.194755 11.5848 0.367649C12.0468 0.545443 12.436 0.786234 12.8251 1.17542C13.181 1.52513 13.4564 1.94816 13.6322 2.41508C13.8051 2.86096 13.9227 3.36985 13.9577 4.11462C13.9661 4.30081 13.9731 4.45621 13.9787 4.613L13.9829 4.7488C13.9953 5.25922 14.0007 5.76978 13.999 6.28035L13.9997 6.80253V7.7195C14.0014 8.2303 13.996 8.7411 13.9836 9.25175L13.9794 9.38754C13.9738 9.54434 13.9668 9.69903 13.9584 9.88592C13.9234 10.6307 13.8044 11.1389 13.6322 11.5848C13.457 12.0522 13.1815 12.4756 12.8251 12.8251C12.4751 13.1809 12.0519 13.4563 11.5848 13.6322C11.1389 13.8051 10.6308 13.9227 9.886 13.9577C9.69911 13.9661 9.54441 13.9731 9.38762 13.9787L9.25183 13.9829C8.74119 13.9953 8.2304 14.0007 7.71961 13.999L7.19743 13.9997H6.28118C5.77039 14.0014 5.2596 13.996 4.74896 13.9836L4.61317 13.9794C4.447 13.9734 4.28088 13.9664 4.11479 13.9584C3.37003 13.9234 2.86186 13.8044 2.41528 13.6322C1.94818 13.4567 1.52509 13.1813 1.17564 12.8251C0.819394 12.4753 0.543733 12.052 0.367885 11.5848C0.194994 11.1389 0.0773999 10.6307 0.0424017 9.88592C0.0346061 9.71983 0.0276064 9.5537 0.0214028 9.38754L0.017903 9.25175C0.00499822 8.7411 -0.00083544 8.2303 0.00040388 7.7195V6.28035C-0.0015497 5.76978 0.00358392 5.25922 0.0158031 4.7488L0.0207029 4.613C0.0263026 4.45621 0.0333022 4.30081 0.0417018 4.11462C0.0767 3.36915 0.194294 2.86166 0.367185 2.41508C0.543137 1.94793 0.819337 1.52502 1.17634 1.17612C1.52555 0.81966 1.94838 0.543744 2.41528 0.367649C2.86186 0.194755 3.36933 0.0771587 4.11479 0.0421599L4.61317 0.0211606L4.74896 0.0176608C5.25936 0.0047622 5.76992 -0.00107156 6.28048 0.000161322L7.71961 0.000861247ZM7.00004 3.50074C6.53632 3.49418 6.07592 3.57986 5.6456 3.75278C5.21527 3.92571 4.82361 4.18243 4.49337 4.50805C4.16312 4.83366 3.90088 5.22166 3.72189 5.6495C3.5429 6.07735 3.45073 6.5365 3.45073 7.00027C3.45073 7.46405 3.5429 7.9232 3.72189 8.35104C3.90088 8.77889 4.16312 9.16689 4.49337 9.4925C4.82361 9.81811 5.21527 10.0748 5.6456 10.2478C6.07592 10.4207 6.53632 10.5064 7.00004 10.4998C7.92826 10.4998 8.81845 10.1311 9.47479 9.47471C10.1311 8.81836 10.4999 7.92815 10.4999 6.99992C10.4999 6.0717 10.1311 5.18149 9.47479 4.52513C8.81845 3.86878 7.92826 3.50074 7.00004 3.50074ZM7.00004 4.90069C7.27899 4.89555 7.55615 4.94605 7.81536 5.04923C8.07457 5.15242 8.31061 5.30622 8.50971 5.50166C8.70881 5.69709 8.86697 5.93024 8.97495 6.18749C9.08294 6.44474 9.13858 6.72092 9.13862 6.99992C9.13867 7.27891 9.08312 7.55511 8.97523 7.8124C8.86733 8.06968 8.70925 8.30289 8.51021 8.49839C8.31118 8.69389 8.07518 8.84777 7.81601 8.95104C7.55684 9.05431 7.27969 9.1049 7.00075 9.09985C6.44382 9.09985 5.9097 8.87861 5.5159 8.4848C5.12209 8.09098 4.90085 7.55686 4.90085 6.99992C4.90085 6.44299 5.12209 5.90886 5.5159 5.51505C5.9097 5.12124 6.44382 4.89999 7.00075 4.89999L7.00004 4.90069ZM10.6749 2.45078C10.449 2.45982 10.2355 2.55588 10.0789 2.71885C9.92234 2.88182 9.83489 3.09905 9.83489 3.32505C9.83489 3.55105 9.92234 3.76828 10.0789 3.93125C10.2355 4.09422 10.449 4.19028 10.6749 4.19932C10.9069 4.19932 11.1295 4.10713 11.2935 3.94305C11.4576 3.77896 11.5498 3.5564 11.5498 3.32435C11.5498 3.09229 11.4576 2.86974 11.2935 2.70565C11.1295 2.54156 10.9069 2.44938 10.6749 2.44938V2.45078Z" fill="#858585"/>
</svg>
