<svg width="40" height="38" viewBox="0 0 40 38" fill="none" xmlns="http://www.w3.org/2000/svg">
<path fill-rule="evenodd" clip-rule="evenodd" d="M16.8249 7.23333C16.8249 5.47983 18.2464 4.05833 19.9999 4.05833C21.7534 4.05833 23.1749 5.47983 23.1749 7.23333C23.1749 8.98684 21.7534 10.4083 19.9999 10.4083C18.2464 10.4083 16.8249 8.98684 16.8249 7.23333ZM14.3494 10.1518C12.4801 11.0744 10.859 12.4474 9.638 14.1571C8.10682 16.3013 7.28092 18.8689 7.27487 21.5037L7.27485 21.5095L7.2748 21.5154C7.27466 21.5297 7.27455 21.544 7.27448 21.5583C10.7824 21.5626 13.6249 24.4077 13.6249 27.9167C13.6249 29.3513 13.1497 30.675 12.3482 31.7389C14.5421 33.3899 17.225 34.2963 19.9999 34.2963C22.7747 34.2963 25.4576 33.3899 27.6515 31.7389C26.85 30.675 26.3749 29.3513 26.3749 27.9167C26.3749 24.4078 29.2171 21.5628 32.7249 21.5583L32.7249 21.5567L32.7249 21.5481C32.7281 18.9057 31.9064 16.3283 30.3746 14.1752C29.1523 12.4572 27.5263 11.0777 25.6503 10.1518C24.5928 12.1952 22.4594 13.5917 19.9999 13.5917C17.5403 13.5917 15.407 12.1952 14.3494 10.1518ZM4.11514 22.393C2.19933 23.4884 0.908203 25.5517 0.908203 27.9167C0.908203 31.4283 3.75493 34.275 7.26654 34.275C8.15811 34.275 9.00683 34.0915 9.77698 33.7602C12.6317 36.1546 16.2486 37.4797 19.9999 37.4797C23.7511 37.4797 27.3681 36.1546 30.2228 33.7602C30.9929 34.0915 31.8416 34.275 32.7332 34.275C36.2448 34.275 39.0915 31.4283 39.0915 27.9167C39.0915 25.5529 37.8017 23.4904 35.8875 22.3946C35.9038 22.1113 35.9108 21.8274 35.9082 21.5434C35.9104 18.2413 34.8828 15.0206 32.9685 12.3298C31.2881 9.96794 28.9979 8.1177 26.3528 6.9699C26.2147 3.58045 23.4232 0.875 19.9999 0.875C16.5765 0.875 13.785 3.58045 13.6469 6.9699C11.0104 8.11396 8.72642 9.95597 7.0474 12.3072C5.1333 14.9876 4.10033 18.1969 4.09155 21.4905C4.08878 21.7916 4.09666 22.0927 4.11514 22.393ZM29.5582 27.9167C29.5582 26.1632 30.9797 24.7417 32.7332 24.7417C34.4867 24.7417 35.9082 26.1632 35.9082 27.9167C35.9082 29.6702 34.4867 31.0917 32.7332 31.0917C30.9797 31.0917 29.5582 29.6702 29.5582 27.9167ZM7.26654 24.7417C5.51303 24.7417 4.09154 26.1632 4.09154 27.9167C4.09154 29.6702 5.51303 31.0917 7.26654 31.0917C9.02004 31.0917 10.4415 29.6702 10.4415 27.9167C10.4415 26.1632 9.02004 24.7417 7.26654 24.7417Z" fill="#070707"/>
</svg>
