<svg width="14" height="12" viewBox="0 0 14 12" fill="none" xmlns="http://www.w3.org/2000/svg">
<path fill-rule="evenodd" clip-rule="evenodd" d="M1.11503 1.44706C0.333984 2.22812 0.333984 3.48519 0.333984 5.99935C0.333984 8.51348 0.333984 9.77061 1.11503 10.5516C1.89608 11.3327 3.15316 11.3327 5.66732 11.3327H8.33398C10.8481 11.3327 12.1053 11.3327 12.8863 10.5516C13.6673 9.77061 13.6673 8.51348 13.6673 5.99935C13.6673 3.48519 13.6673 2.22812 12.8863 1.44706C12.1053 0.666016 10.8481 0.666016 8.33398 0.666016H5.66732C3.15316 0.666016 1.89608 0.666016 1.11503 1.44706ZM11.3848 3.01259C11.5615 3.22473 11.5329 3.54001 11.3207 3.7168L9.85645 4.93708C9.26552 5.42948 8.78658 5.82862 8.36385 6.10048C7.92352 6.38368 7.49472 6.56262 7.00065 6.56262C6.50658 6.56262 6.07778 6.38368 5.63744 6.10048C5.21473 5.82862 4.73579 5.42948 4.14489 4.93708L2.68056 3.7168C2.46842 3.54001 2.43976 3.22473 2.61654 3.01259C2.79332 2.80045 3.1086 2.77179 3.32074 2.94857L4.76 4.14796C5.38198 4.66628 5.81378 5.02495 6.17838 5.25942C6.53125 5.48641 6.77058 5.56262 7.00065 5.56262C7.23072 5.56262 7.47005 5.48641 7.82292 5.25942C8.18752 5.02495 8.61932 4.66628 9.24132 4.14796L10.6806 2.94857C10.8927 2.77179 11.208 2.80045 11.3848 3.01259Z" fill="#563B10"/>
</svg>
