<svg width="28" height="28" viewBox="0 0 28 28" fill="none" xmlns="http://www.w3.org/2000/svg">
<path fill-rule="evenodd" clip-rule="evenodd" d="M2.4375 13.375C2.4375 7.33439 7.33439 2.4375 13.375 2.4375C19.4156 2.4375 24.3125 7.33439 24.3125 13.375C24.3125 19.4156 19.4156 24.3125 13.375 24.3125C7.33439 24.3125 2.4375 19.4156 2.4375 13.375ZM13.375 0.5625C6.29885 0.5625 0.5625 6.29885 0.5625 13.375C0.5625 20.4511 6.29885 26.1875 13.375 26.1875C16.5756 26.1875 19.5022 25.0139 21.7478 23.0736L25.8371 27.1629C26.2032 27.529 26.7968 27.529 27.1629 27.1629C27.529 26.7968 27.529 26.2032 27.1629 25.8371L23.0736 21.7478C25.0139 19.5022 26.1875 16.5756 26.1875 13.375C26.1875 6.29885 20.4511 0.5625 13.375 0.5625Z" fill="#121212"/>
</svg>
