<svg width="22" height="28" viewBox="0 0 22 28" fill="none" xmlns="http://www.w3.org/2000/svg">
<path fill-rule="evenodd" clip-rule="evenodd" d="M6.93767 6.5C6.93767 4.25634 8.75651 2.4375 11.0002 2.4375C13.2438 2.4375 15.0627 4.25634 15.0627 6.5C15.0627 8.74366 13.2438 10.5625 11.0002 10.5625C8.75651 10.5625 6.93767 8.74366 6.93767 6.5ZM11.0002 0.5625C7.72098 0.5625 5.06267 3.22081 5.06267 6.5C5.06267 9.77919 7.72098 12.4375 11.0002 12.4375C14.2794 12.4375 16.9377 9.77919 16.9377 6.5C16.9377 3.22081 14.2794 0.5625 11.0002 0.5625ZM1.93767 20.875C1.93767 19.8108 2.71439 18.6564 4.38872 17.7146C6.03366 16.7893 8.36926 16.1875 11.0002 16.1875C13.6311 16.1875 15.9667 16.7893 17.6116 17.7146C19.2859 18.6564 20.0627 19.8108 20.0627 20.875C20.0627 22.5098 20.0123 23.43 19.1582 24.1255C18.695 24.5027 17.9208 24.8708 16.5954 25.1391C15.2742 25.4065 13.468 25.5625 11.0002 25.5625C8.53239 25.5625 6.72609 25.4065 5.40491 25.1391C4.07957 24.8708 3.30532 24.5027 2.84215 24.1255C1.98806 23.43 1.93767 22.5098 1.93767 20.875ZM11.0002 14.3125C8.10823 14.3125 5.44382 14.9698 3.46948 16.0804C1.52452 17.1745 0.0626678 18.8326 0.0626678 20.875C0.0626678 20.9171 0.0626265 20.9596 0.0625849 21.0024L0.0625848 21.0024C0.0611726 22.4548 0.0594002 24.2775 1.65818 25.5794C2.44502 26.2202 3.54577 26.6758 5.03293 26.9768C6.52424 27.2787 8.46795 27.4375 11.0002 27.4375C13.5324 27.4375 15.4761 27.2787 16.9674 26.9768C18.4546 26.6758 19.5553 26.2202 20.3422 25.5794C21.9409 24.2775 21.9392 22.4548 21.9377 21.0024C21.9377 20.9804 21.9377 20.9585 21.9377 20.9367C21.9377 20.9161 21.9377 20.8955 21.9377 20.875C21.9377 18.8326 20.4758 17.1745 18.5309 16.0804C16.5565 14.9698 13.8921 14.3125 11.0002 14.3125Z" fill="#121212"/>
</svg>
